#tb 0: 1/25
#media_type 0: video
#codec_id 0: rawvideo
#dimensions 0: 832x480
#sar 0: 0/1
0,          0,          0,        1,   599040, 0xac658d10
0,          1,          1,        1,   599040, 0xe3f65389
0,          2,          2,        1,   599040, 0xfbd644b0
0,          3,          3,        1,   599040, 0x3ac49569
0,          4,          4,        1,   599040, 0x75abc5e2
0,          5,          5,        1,   599040, 0xe787ddcd
0,          6,          6,        1,   599040, 0x1df5f293
0,          7,          7,        1,   599040, 0xa87774aa
0,          8,          8,        1,   599040, 0x42b2bec6
0,          9,          9,        1,   599040, 0x89f22378
0,         10,         10,        1,   599040, 0x0d4e5397
0,         11,         11,        1,   599040, 0xf4430d13
0,         12,         12,        1,   599040, 0xfd2ff520
0,         13,         13,        1,   599040, 0x21bf374b
0,         14,         14,        1,   599040, 0xcba1032e
0,         15,         15,        1,   599040, 0x58247f24
0,         16,         16,        1,   599040, 0x7985788a
0,         17,         17,        1,   599040, 0x3306488e
0,         18,         18,        1,   599040, 0x8bcbf22e
0,         19,         19,        1,   599040, 0xb7a7ae5c
